<svg xmlns="http://www.w3.org/2000/svg" xmlns:xlink="http://www.w3.org/1999/xlink" preserveAspectRatio="xMidYMid" width="21" height="9" viewBox="0 0 21 9">
  <defs>
    <style>
      .cls-1 {
        fill: #fff;
        fill-rule: evenodd;
      }
    </style>
  </defs>
  <path d="M8.000,4.751 C9.422,6.171 10.833,7.581 12.251,8.999 C15.177,6.008 18.088,3.032 21.000,0.054 C20.986,0.036 20.971,0.018 20.957,-0.000 C20.616,0.183 20.276,0.368 19.933,0.550 C18.974,1.057 18.012,1.560 17.055,2.071 C15.760,2.761 14.469,3.460 13.172,4.145 C13.108,4.178 12.960,4.141 12.900,4.087 C12.673,3.881 12.470,3.651 12.254,3.434 C11.433,2.614 10.617,1.789 9.785,0.978 C9.451,0.653 9.080,0.362 8.710,0.042 C8.481,0.283 8.216,0.568 7.943,0.847 C7.044,1.770 6.142,2.691 5.242,3.612 C4.321,4.553 3.402,5.494 2.479,6.433 C1.717,7.211 0.950,7.986 0.186,8.763 C0.123,8.827 0.061,8.893 0.001,8.958 C0.011,8.970 0.022,8.982 0.033,8.994 C2.683,7.583 5.334,6.171 8.000,4.751 Z" class="cls-1"/>
</svg>
