<svg xmlns="http://www.w3.org/2000/svg" xmlns:xlink="http://www.w3.org/1999/xlink" preserveAspectRatio="xMidYMid" width="10" height="18" viewBox="0 0 10 18">
  <defs>
    <style>
      .cls-1 {
        fill: #fff;
        fill-rule: evenodd;
      }
    </style>
  </defs>
  <path d="M2.222,9.946 L2.222,17.997 L6.426,17.997 L6.426,9.984 L9.297,9.984 L9.991,6.643 L6.457,6.643 C6.457,6.643 6.457,5.071 6.457,4.192 C6.457,3.854 6.650,3.401 7.238,3.401 C8.145,3.401 9.282,3.401 9.282,3.401 L9.282,-0.002 C9.282,-0.002 7.441,-0.002 5.467,-0.002 C4.152,-0.002 2.207,1.509 2.207,3.114 C2.207,4.767 2.207,6.548 2.207,6.548 L0.002,6.548 L0.002,9.931 L2.222,9.946 Z" class="cls-1"/>
</svg>
