<?xml version="1.0" encoding="utf-8"?>
<!-- Generator: Adobe Illustrator 19.0.0, SVG Export Plug-In . SVG Version: 6.00 Build 0)  -->
<svg version="1.1" id="Layer_1" xmlns="http://www.w3.org/2000/svg" xmlns:xlink="http://www.w3.org/1999/xlink" x="0px" y="0px"
	 viewBox="0 0 598 252" style="enable-background:new 0 0 598 252;" xml:space="preserve">
<style type="text/css">
	.st0{fill-rule:evenodd;clip-rule:evenodd;fill:#FFFFFF;}
	.st1{fill-rule:evenodd;clip-rule:evenodd;fill:#B50938;}
	.st2{fill-rule:evenodd;clip-rule:evenodd;fill:#E6E7E8;}
	.st3{fill-rule:evenodd;clip-rule:evenodd;fill:#B40937;}
	.st4{display:none;}
	.st5{display:inline;fill-rule:evenodd;clip-rule:evenodd;fill:#FFFFFF;}
	.st6{display:inline;fill-rule:evenodd;clip-rule:evenodd;fill:#E6E7E8;}
	.st7{display:inline;fill-rule:evenodd;clip-rule:evenodd;fill:#B40937;}
</style>
<g>
	<circle class="st0" cx="74.1" cy="90.3" r="74"/>
	<path class="st1" d="M365.5,143.3c4.9-0.2,5.8-0.9,7.3-4.9c2.4-6.1,5.4-15.2,8.3-23.4l9.5-27.2h9l17.2,51.1
		c1.3,3.9,2.3,4.2,6.8,4.4v3h-24.8v-3l4.5-0.3c2.1-0.2,2.5-1.3,1.8-3.4l-4.9-14.8h-17.3c-1.6,5.4-3.3,10.2-4.4,15
		c-0.5,2.1-0.4,3,1.7,3.2l4.8,0.3v3h-19.4V143.3z M162.4,143.3c6.5-0.3,7-0.6,7-5.1V95.8c0-4.5-0.5-4.7-7-5.1v-3h44.2v14.9h-3
		c-2.1-8.4-3.8-11.3-12.8-11.3h-6.7c-2.4,0-3,0.5-3,3v20.8h10.5c6,0,6.8-1.7,7.9-7.5l3,0v19h-3c-1.1-5.9-1.9-7.5-7.9-7.5h-10.5v19
		c0,4.6,0.6,4.8,8.4,5.2v3h-27.1V143.3z M233.2,138.3c0,4.5,0.5,4.7,7,5.1v3h-25.7v-3c6.5-0.3,7-0.6,7-5.1V95.8c0-4.5-0.5-4.7-7-5.1
		v-3h25.7v3c-6.5,0.3-7,0.6-7,5.1L233.2,138.3z M267.1,87.8c9.5,14.2,19.2,28.3,28.9,42.6l0.3,0.1v-22.9c0-5.9-0.2-9.2-0.5-12.2
		c-0.3-2.8-1.3-4-3.6-4.2l-4.5-0.4v-3h20.2v3l-3,0.3c-2,0.3-3,1.5-3.4,4.3c-0.3,2.9-0.4,6.2-0.4,12.2v38.7h-8
		c-10.7-16.1-21.6-32.3-32.5-48.5h-0.3v28.7c0,5.9,0.2,9.2,0.5,12.2c0.3,2.8,1.3,4,3.6,4.2l4.5,0.4v3h-20.2v-3l3-0.3
		c2-0.3,3-1.5,3.4-4.3c0.3-2.9,0.4-6.2,0.4-12.2l0-30.7c0-4.5-0.5-4.7-7-5.1v-3H267.1z M361.6,143.5c-4.7,2.7-13.2,4.1-19.4,4.1
		c-10,0-17.7-2.4-22.8-7.2c-5.4-5.2-8.2-12.9-8.2-22.6c0-9.5,2.4-17.2,7.5-22.7c5.1-5.4,13.2-8.5,24.4-8.5c5.5,0,13.5,1,18.1,3.6
		v14.4h-3c-1.8-7.5-5.8-14.4-15.9-14.4c-15.5,0-18.2,17.6-18.2,26.5c0,9.8,2.6,27.4,18.6,27.4c10.1,0,13.9-7,16.8-16.1h3
		L361.6,143.5z M398.8,121.1l-7.3-22.7h-0.2c-0.9,2.7-6.3,19.7-7.4,22.7H398.8z M278.1,146.4h0.2"/>
	<path class="st1" d="M445.8,103.4c2.4-0.6,6.4-1,10.2-1c5.6,0,9.2,1,11.9,3.2c2.3,1.7,3.7,4.3,3.7,7.7c0,4.3-2.8,7.9-7.3,9.5v0.2
		c4.1,1,9,4.4,9,10.8c0,3.7-1.5,6.6-3.7,8.7c-3,2.8-7.9,4.1-14.9,4.1c-3.9,0-6.8-0.3-8.7-0.5V103.4z M451.4,121.2h5.1
		c5.9,0,9.3-3.2,9.3-7.3c0-5-3.8-7.1-9.5-7.1c-2.6,0-4.1,0.2-5,0.4L451.4,121.2z M502.4,138.7c0,2.7,0.1,5.3,0.5,7.5l-5.1,0
		l-0.5-3.9h-0.2c-1.7,2.5-5.1,4.6-9.5,4.6c-6.3,0-9.5-4.4-9.5-9c0-7.5,6.7-11.7,18.8-11.6v-0.6c0-2.5-0.7-7.2-7.1-7.2
		c-3,0-6,0.8-8.2,2.3l-1.3-3.8c2.6-1.6,6.4-2.7,10.3-2.7c9.5,0,11.9,6.5,11.9,12.7L502.4,138.7z M496.9,130.3
		c-6.2-0.1-13.2,1-13.2,7c0,3.7,2.4,5.4,5.3,5.4c4.1,0,6.8-2.6,7.7-5.2c0.2-0.6,0.3-1.3,0.3-1.8L496.9,130.3z M511.6,123.5
		c0-3.3-0.1-5.9-0.3-8.4h5l0.3,5.2h0.1c1.5-2.9,5.2-5.8,10.3-5.8c4.3,0,11,2.6,11,13.3v18.6h-5.7v-18c0-5-1.9-9.2-7.2-9.2
		c-3.7,0-6.6,2.6-7.6,5.8c-0.3,0.7-0.4,1.7-0.4,2.6l0,18.8h-5.7V123.5z M552.9,129.3h0.1c0.8-1.1,1.8-2.4,2.7-3.5L565,115h6.8
		l-12,12.8l13.7,18.4h-7l-10.7-15l-2.9,3.2v11.7h-5.6v-45.8h5.6V129.3z M451.4,141.9c1.2,0.2,2.7,0.3,4.7,0.3
		c5.8,0,11.1-2.1,11.1-8.4c0-5.9-5.1-8.4-11.2-8.4h-4.6V141.9z"/>
	<path class="st0" d="M74.4,156.9c-36.8,0-66.6-29.8-66.6-66.6c0-36.8,29.8-66.6,66.6-66.6c36.8,0,66.6,29.8,66.6,66.6
		C141,127,111.2,156.9,74.4,156.9"/>
	<path class="st2" d="M101.4,111.8c0,0.1,0.1,0.1,0.1,0.2C101.5,112,101.4,111.8,101.4,111.8"/>
	<path class="st0" d="M141.8,90.5C141.8,90.5,141.8,90.5,141.8,90.5L141.8,90.5C141.8,90.5,141.8,90.5,141.8,90.5"/>
	<path class="st3" d="M80.8,106c-1.1,0-4.3,3.7-8.4-9.2c0-0.1,0.1-0.1,0.1-0.2c1.1-1.4,2.2-3.9,4.9-1.6c2.7,2.3-0.2,2.4,4.9,5.2
		c1.5,0.8,2.5,1.7,3.4,2.4C84.1,104,81.5,106,80.8,106 M74.1,28.3c-34.2,0-62,27.7-62,62c0,23,12.5,43.1,31.2,53.8
		c0,0,0.1,0,0.1,0.1c2.1,0.3,3.8,0.3,5.3,0.2c4.7-0.5,7-2.7,10.4-4.2c3.7-1.7,8.5-5.3,8.9-9.4c0.3-2.3,2-8.2,1.3-14
		c-0.8-5.8,1.1-4.4-3.3-9.6c-0.8-0.9-1.5-1.7-2.3-2.4c-0.2,0.4-0.8,0.1-2.2-1.9c0,0,0,0,0,0c-1.2-0.9-2.3-1.6-3.1-2.1
		c-0.2,0-0.5,0-0.9-0.1c-3-0.8-0.1,3.1-2.4,2.9c-2.3-0.2-1.6,3.6-2.8,3c-1.2-0.5,0.8-3-2.2-1.5c-3,1.5-2.4,1-2.9,0.1
		c-0.6-0.9,0.7-1.7-1.5-2.4c-2.3-0.7-0.8,1.2-3.7,1.4c-2.9,0.2-1.7,1.7-3,3.3c-1.3,1.6-1.1-0.7-3.2,0.5c-2.1,1.2-0.5,2.3-1,3.1
		c-0.5,0.8-0.6-0.1-0.7-0.7c-0.2-0.6-1.3,0.1-0.9-1.5c0.4-1.5,0.7-2.6,1.7-3.1c1-0.5,0.4-1.3-1.1-1.5c-1.5-0.2-0.7-0.4-1.4-1.3
		c-0.7-0.9-2.2-1-3.4-0.4c-1.2,0.6-1.2,1.1-1.2,1.1s-1.9-1.4,0.3-1.5c2.1-0.2,1.7-1.4,2.8-2.1c1.1-0.7,0.7-0.7,0.3-1.2
		c-0.4-0.5-1.3-0.5,0.8-0.9c2-0.4,0.9-0.8,2.6-2.2c1.7-1.5,2.3,1.8,3.3-0.9c0.9-2.7-0.3-4.1-0.3-4.6c-0.1-0.5-1.3-2.3,0.3-1.8
		c1.7,0.5,2.3,0.8,3.7-0.9c1.5-1.7,1.5-0.5,2-1.7c0.5-1.2,2.9-1.7,1.4-3.1c-1.5-1.4-1.3,0.6-2.9-0.3c-1.6-0.9,0.2-1.7-1-2
		c-1.2-0.4-0.4,1.1-3.3,1c-2.9-0.1-2.1,1.4-3.7,1.8c-1.6,0.4-0.6,2-2.4,1.7c-1.7-0.2-0.8-1-2.4-2c-1.6-1-1.9-0.4-3.6-0.4
		c-1.7,0-2.2,2.7-2.3,0.9c-0.1-1.9-0.7-2.5,0.3-3.9c0.9-1.4-0.3-1.3,2-1.4c2.4-0.2,0.7-2,1.9-2.8c1.3-0.7-0.3-2.2,1.6-3
		c2-0.8,4.3-0.1,4.3-0.1c1.3-0.7-1.1-0.2,3.3-2.2c4.4-2,2-0.2,4.4-0.5c2.4-0.3,0.9-1,2.4-0.9c1.5,0.1,2,1.4,3.7,0.7
		c1.7-0.6,2.5,0.6,2.5-0.8c0-1.5-1.8-1.3-2.5-1.9c-0.6-0.6-5.3,1.9-4.6,0.3c0.8-1.5,0-0.7-0.1-1.4c-0.1-0.7-3.1-1.2-3.5-1.6
		c-0.4-0.4,2.1,0-0.7-1.5c-2.6-1.4-1.1-0.1-2.4-0.4c-1.8-0.5,0-1.1-1.1-1.4c-2.9-0.6-2.3-0.7-1.2-1.9c1-1.2,0.2-2.6,0.2-3.6
		c-0.1-1-1.7-0.2-1.5-1.2c0.3-1,1.6-1.3,2.1-1.6c0.5-0.2-0.1-3.6,0.7-4.5c0.7-0.8,1.6,2.2,4.1,2.7c2.5,0.5,1.5,1.6,4.6-0.1
		c3.1-1.7,3.3,0.3,3.3,0.3s0.2,0.8,1.6,0.9c1.4,0.2,0.6,4.5,1.5,3.2c0.9-1.2,2.4,0.2,2.7-0.8c0.3-1,2.8,1.8,0.3-2.6
		c-2.5-4.4-6.3,1.1-5.3-2.4c1-3.6-1-4.7,0.6-5.8c1.6-1.1-3.4-2.5,1.9-2.5c5.4,0.1,5.6-2.7,5.6-2.7c0,0-0.9-1.6,1.5-2.4
		c2.4-0.8,2.2-0.2,2.2-0.2s-0.4,2,1.3,0c1.6-2,0.5-0.8,1.6-0.8c1.1,0-0.5-1.4,2.6-0.7c1.9,0.4,0.6,2.6,3.8,2.2
		c0.9-0.1,0.4-2.9,0.4-2.9c1-1,0.9-1.3,2-1c1.1,0.3,2.1-0.8,2.1-0.8s1.7,1.9,5.1,1c0.4-0.1,0.8,0.4,0.8,1.4c0.1,1,1.8,0.7,1.8,0.7
		s-0.6,1.5,1.9,1.4c0,0,1.1-1.3,2.1-0.4c1,0.8,0.1,2.8,0.6,3.6c0.5,0.7,0.5,0.9,2.7,0.7c2.2-0.1,3.6-0.4,3,1
		c-0.6,1.4,2.1,0.7,2.5,0.9c0.4,0.3-0.8,2.8-0.6,4c0.3,1.3-0.8,1.2-1.4,1.1c-0.7-0.1-1.3,1.2,0.4,1.9c1.8,0.7,1.3,1.6,4.5,0.2
		c3.2-1.4,2-0.8,4.7-0.8c1,0-0.2-0.9,1.5-2.7c0,0,0.6-2,1.9,0.7c1.3,2.8-1.4,1.4,1.2,4.3c2.5,3-0.8,1.7,3.5,3.9
		c1.8,0.9,2.1-1.4,3.1,2c1,3.4,1.6,1.9,1.9,3.7c0,0,0,1.2-4.9,0.8c-2-0.2,0.9,1.8-2,2.5c-1.3,0.3-0.7,1.9-0.3,2.7
		c0.4,0.8,5.4-0.9,8.2,1.8c0,0,0.8,1.6,3.4,2.3c2.6,0.6-1.7,2,3.5,3.1c1.8,0.4,0.5,4.5-0.1,5.1c-0.5,0.6-0.7,2,1.9,3.1
		c0,0-0.8,2.8-4.4,1.3c-3.9-1.6,0.4,0.2-3.7,0.1c-4.2-0.1,0.4,2-1.5,2c-1.9,0.1,0.3,1.6-1,3.9c-1.2,2.3,0.3,1.7,0.3,3.2
		c-0.1,1.4,2.1-1.3,3.6,0.1c1.6,1.4,2.4,3.3,6.2,2.4c3.8-0.9,2.4,1.4,3.8,2.7c1.9,1.7-1.7,0.7-2.8,0.4c0,0-1.7-0.5-2.9,0.6
		c-1.2,1.1-0.4,3-3.7,2c-3.3-1-3.2,0-3.2,0s-0.9,3.4,1.9,4.4c0.9,0.3-0.2,2.1-1.7,2.7c-1.5,0.5-2.9,0-2.7,2.6c0.2,2.6,0.1-1.3-3,1.5
		c0,0,0.7,1.4-1.3,3c-2.1,1.6-1.4,6-2.1,3.1c-0.8-3.2-3.5-2.1-3.5-2.1c-1.8-3.5-2.1-4.2-2-4.2c-1.2-2,1-2.4,0.4-2.5
		c-3.7-0.8-1.6-3.2-2.9-2.6c-1.1,0.5-3.1-1-2,2.3c1.1,3.3-1.1,0.3-1.7,0c-3.3-1.8,1-2.1-2.9-2.3c-0.6,0-1.2-0.1-1.6-0.3
		c-1.5,0.2-3.5,0.7-4.4,1.9c-1.6,2.2-4.9,2.6-5.6,4.4c-0.7,1.8-1.6,8-0.8,15c0.8,6.9,4.5,9.5,7.8,13.9c2.9,3.8,10.9,5.2,12.9,5.4
		c21.3-9.8,36.1-31.3,36.1-56.3C136,56.1,108.3,28.3,74.1,28.3 M68,97c-1.5-2.1-1.2-2.9-1.7-0.8c-0.4,2.2-2.4,2.9-2.9,3.8
		c-0.1,0.1-0.1,0.3-0.1,0.6c0,0,0,0,0.1,0.1c6.2,6.5,6.3,8.1,7.5,4.9c0.5-1.5-0.6-5-1.6-7.5C68.8,97.9,68.4,97.6,68,97z M61.1,69.8
		c1.1,0.9,1.7,0.7,2.5,1.2c0.1,0.1,0.3,0.1,0.4,0.1c0.9-0.1,1.2-1.5,1.2-1.5V67c0-0.4-0.1-0.6-0.4-0.6c-0.5,0-1.2,0.7-1.6,1
		c-0.3,0.3-0.4,0.4-0.7,0.4c-0.3,0-0.7-0.1-1.4-0.4c-0.8-0.4-1.8-0.5-2.8-0.5c-1,0-1.9,0.2-2.2,0.7c-0.5,0.8-0.7,0.9-2.6,1.7l0,0
		l0,0c-0.3,0.4-0.4,0.6-0.4,0.9c0,0.4,0.4,0.5,0.7,0.5c0.3,0,0.6,0.1,0.7,0.3c0.1,0.2,0.3,0.3,0.6,0.3h0c0.7,0,1.6-0.6,2.3-1.5
		c0.4-0.5,0.9-0.7,1.6-0.7C59.8,69.1,60.6,69.4,61.1,69.8z M53.2,83.9c-0.1,0-0.2,0-0.3,0c-0.6,0-1.1-0.2-1.6-0.2
		c-0.2,0-0.5,0.1-0.6,0.4c-0.2,0.7-0.1,2.3-0.5,2.3c-0.5,0.1-1.8,0.1-2.1,1.4c-0.1,0.2-0.1,0.4-0.1,0.5c0,0.8,0.5,1.1,1.1,2.2
		c0.3,0.4,0.4,0.7,0.7,0.7c0.5-0.1,0.6-0.8,1.1-0.9c0.8-0.3,1-0.9,1.5-0.9c0.1,0,0.3,0,0.5,0.1c0.5,0.2,0.5,0.4,0.7,0.6
		c0.1,0.3,0.4,0.5,1.1,0.5c0.1,0,0.2,0,0.3,0c0.6,0,0.8-0.2,1-0.5c0.2-0.2,0.2-0.3,0.5-0.3c0.1,0,0.2,0,0.4,0.1
		c0.2,0.1,0.4,0.1,0.5,0.1c0.1,0,0.2,0,0.3-0.1c0.1-0.1,0.1-0.2,0.1-0.2c0-0.3-0.3-0.6-0.3-0.6l0,0l-0.7-0.4v-2.5c0,0,0-0.1,0-0.2
		c0-0.1,0-0.2-0.1-0.3c-0.1-0.1-0.3-0.2-0.5-0.2c-0.1,0-0.3,0-0.4,0c-0.1,0-0.1,0-0.2,0c-0.4,0-0.6-0.4-0.6-0.8
		c0-0.3,0.1-0.5,0.2-0.6c0.1-0.1,0.1-0.2,0.1-0.2c0-0.4-0.6-0.7-1.1-0.8c-0.2,0-0.3,0.1-0.4,0.2c-0.1,0.1-0.1,0.3-0.1,0.4v0.1
		c0,0,0,0-0.1,0C53.6,83.9,53.5,83.9,53.2,83.9z M66.5,82.9L66.5,82.9c0,0.1-0.1,0.3-0.1,0.7c0,0.5,0.1,1.1,0.6,1.8
		c0.2,0.3,0.5,0.4,0.7,0.4c0.6,0,1-0.5,1.4-0.5c0.1,0,0.1,0,0.2,0c0.1,0,0.2,0.1,0.3,0.1c0.3,0,0.3-0.3,0.3-0.5v0
		c0-0.2,0-0.2,0.1-0.2c0,0,0,0,0.1,0c0,0,0.1,0,0.2,0c0.1,0,0.1,0,0.2-0.1c0.1-0.1,0.1-0.1,0.1-0.2c0-0.3-0.4-0.8-0.4-1v0
		c0,0,0.1-0.1,0.1-0.2C70.2,83,70,83,69.8,82.9c-0.2-0.1-0.4-0.2-0.4-0.4c-0.2-0.7-0.2-1.3-0.2-1.6c0-0.3-0.3-0.3-0.4-0.4
		c-0.2,0-0.2-0.1-0.3-0.1c-0.1-0.3-0.1-0.8-0.1-0.8l0,0l0,0l-0.1,0.1l0.1-0.1c0,0-0.1-0.4-0.4-0.4c-0.2,0-0.3,0.2-0.3,0.5
		c0,0.4,0,0.8-0.1,1c-0.1,0.3-0.1,0.3-0.3,0.3c0,0-0.1,0-0.1,0l-0.1,0c-0.4,0-0.4,0.4-0.4,0.7c0,0.5,0.1,1,0.2,1.3h-0.4H66.5z
		 M75.2,86.5c0,0.4,0.1,0.9,0.4,1.1c0.4,0.3,1.1,0.4,1.6,0.4c0.4,0,0.9-0.1,1.1-0.4c0.4-0.7-0.1-0.6,0.9-1.7c1-1.1,1.8-0.7,2.6-1.2
		c0.6-0.5,2.2,0.1,2.8-0.9c0.4-0.8,0.9-0.7,1.6-1.6c0.2-0.4,0.3-0.4,0.4-0.6c0-0.2-0.2-0.2-0.2-0.2c-0.1,0-0.4,0-0.9-0.3
		c-0.2-0.1-0.4-0.2-0.6-0.2c-0.9,0-1.5,1-2.6,0.9c-0.7,0-0.9-0.2-1.1-0.4c-0.2-0.2-0.3-0.6-0.7-0.9c-0.2-0.1-0.4-0.2-0.5-0.2
		c-0.7,0-1.2,0.8-2.3,0.8c-0.7,0-1.1,0.1-1.3,0.4c-0.2,0.3-0.2,0.8-0.3,1.5C76,83.6,76,83.9,76,84v0.1c0,0,0,0-0.2,0.3
		C75.5,84.8,75.2,85.7,75.2,86.5z M91.2,85.7c-0.1,0.1-0.3,0.3-0.3,0.5c0,0.2,0.1,0.3,0.3,0.5c0.2,0.2,0.4,0.2,0.5,0.2
		c0.3,0,0.4-0.2,0.5-0.2c0.1,0,0.3,0.1,0.7,0.4c0.4,0.4,0.6,0.6,0.6,0.8c0,0.2,0.2,0.4,0.4,0.4c0.2,0,0.4-0.1,0.8-0.1
		c0.3-0.1,0.6-0.1,0.7-0.1c0.3,0,0.2,0,0.3,0.2c0.1,0.1,0.1,0.3,0.4,0.4c0.2,0.1,0.1,0.1,0.3,0.2c0.2,0,0.1-0.1,0.2-0.1
		c0-0.1,0.1-0.3,0.7-0.7c1-0.7,1.3-1.3,1.8-1.3c0.1,0,0.2,0,0.4,0.1c0.2,0.1,0.3,0.1,0.3,0.2l0,0c0,0,0,0.1,0.1,0.1
		c0.1,0,0.1,0,0.3-0.1c0.1-0.1,0.4-0.1,0.8-0.3c0.9-0.2,1.2-0.6,1.2-0.9c0.1-0.3,0-0.3,0.5-0.4c0.7,0,1-0.1,1.3-0.1
		c0.1,0,0.2,0,0.4,0.1c0.1,0,0.2,0.1,0.2,0c0.4,0,0.8-0.5,0.8-0.8c0-0.1,0-0.1-0.1-0.2c-0.1-0.1-0.1-0.1-0.2-0.1
		c-0.1,0-0.2,0-0.4,0.1c-0.2,0.1-0.3,0.2-0.5,0.2c-0.3,0-0.5-0.4-0.9-1c-0.3-0.4-0.6-0.6-0.9-0.6c-0.3,0-0.6,0.2-1,0.6
		c-0.5,0.5-1.2,0.9-1.7,0.9c-0.1,0-0.3,0-0.4-0.1c-0.6-0.2-0.4-0.6-1.6-0.9c-0.9-0.2-1.4-0.9-2-0.9c-0.2,0-0.4,0.1-0.7,0.3
		c-0.4,0.3-0.7,0.4-0.8,0.4c-0.2,0-0.3-0.1-0.5-0.3c-0.3-0.2-0.7-0.4-1.1-0.4c-0.3,0-0.7,0.2-0.8,0.6c-0.1,0.6-0.8,1.1-0.8,1.7
		c0,0.1,0.1,0.3,0.2,0.3l0.1,0C91.4,85.5,91.3,85.6,91.2,85.7z M74.1,157.4c-37,0-67.1-30-67.1-67.1c0-37,30-67.1,67.1-67.1
		c37,0,67.1,30,67.1,67v0C141.1,127.3,111.1,157.4,74.1,157.4z M120.2,136.4c11.8-11.8,19.1-28.1,19.1-46.1c0-18-7.3-34.3-19.1-46.1
		C108.4,32.3,92.1,25,74.1,25C56,25,39.7,32.3,28,44.1C16.1,56,8.8,72.3,8.8,90.3c0,18,7.3,34.3,19.1,46.1
		c9.6,9.6,22.1,16.2,36.2,18.4c0.4-0.3,1.6-1.1,3.9-1.5c0.3-0.3,1.5-1.3,2.6-1.4c0.5,0,1-0.2,1.7-0.3l0.1-4c-0.1,0-0.3,0-0.5,0
		c-0.8,0-2.2-0.4-3.3-2.4c-1.6-3-1.7-5.3-2.2-6.1c0-0.1-0.1-0.2-0.1-0.3c0-0.2,0.2-0.3,0.4-0.3c0.9,0,3.2,1.2,4.8,3.8
		c0.7,1.2,1.1,2.1,1.3,2.8l0.5-3.1c0,0,0-0.2,0-0.6c0-1.1,0.1-3.5,1.4-4.3c0,0,2.6-2.3,3-3.2c0.2-0.3,0.3-0.5,0.5-0.6
		c0.3,0,0.3,0.3,0.4,0.5c0.1,0.3,0.1,0.6,0.1,1c0,1.9-0.4,5-1.3,6.2c-1.2,1.8-2.6,1.2-3.2,2c-0.6,0.7-1.2,3.6-1.2,5.6
		c0,0.2,0,0.5,0,0.7c0.1,0.9,0.1,1.6,0.1,2c0,0.1,0,0.1,0,0.1c0.4,0,0.9,0.1,1.4,0.2c0.8,0.3,1,0.6,1.2,0.8c0.1,0.1,0.2,0.2,1.3,0.3
		c0.8,0.1,1.2,0.2,1.5,0.5c0.3,0.3,0.2,0.3,0.3,0.4c0,0,0.2,0.1,0.6,0.1c1.7,0,3.4,0.8,3.4,0.8l0.5,0.3
		C97.7,152.8,110.5,146.1,120.2,136.4z M77.1,45.8c0-0.1-0.2,0-0.2,0c-0.3,0-0.7,0-0.8,0.1c-0.1,0.1-0.2,0-0.3-0.1l-0.1-0.1
		c0,0-0.1-0.2-0.2-0.3c0-0.1-0.2-0.1-0.2-0.2c-0.1,0-0.2,0.2-0.2,0.2c-0.1,0.3-0.2,0.6-0.2,0.9c0,0.4-0.1,0.8-0.3,1.3l-0.1,0.3
		c-0.3,0.5-0.4,0.8-0.4,1.1c0,0.2,0.1,0.3,0.2,0.4l0.5,0.3c0.3,0.1,0.6,0.2,0.6,0.8c0,0.1,0,0.3-0.1,0.4c-0.1,0.4-0.1,0.6-0.1,0.8
		c0,0.4,0.2,0.7,0.9,1.3c0.3,0.3,0.4,0.4,0.4,0.4c0.1-0.1,0.1-0.4,0.1-0.7l0.2-1.3c0.2-1.1,0.6-1.4,0.9-1.8c0.3-0.3,0.6-0.5,0.8-1.2
		l0.2-0.6c0.1-0.2,0.1-0.3,0.1-0.4c0-0.2-0.1-0.2-0.5-0.4l-0.7-0.3c-0.5-0.2-0.7-0.4-0.7-0.6v-0.1C76.8,46,77.1,46,77.1,45.8z
		 M94.4,68.1l0.5,0.6c0.3,0.4,0.4,0.4,0.8,0.1l0.3-0.2c0.5-0.3,0.6-0.8,0.6-1.2c0-0.2,0.1-0.4,0.2-0.5c0.1,0,0.2,0,0.3,0
		c0.2,0.1,0.4,0,0.6,0c0.2-0.1,0.3-0.4,0.4-0.7c0-0.1,0.1-0.3,0.1-0.3c0.3,0,0.4-0.2,0.5-0.4c0.1-0.2,0.2-0.5,0.7-0.5
		c0.3,0,0.5-0.1,0.6-0.3c0.2-0.4,0-0.9,0-1l-0.1-0.1l-0.1,0l-1.3,0.5c-0.3,0.1-0.5,0.1-0.7,0.1c-0.3-0.1-0.4-0.4-0.4-0.4
		c0,0,0-0.1-0.1-0.2c-0.1-0.1-0.3,0-0.9,0.6l-0.7,0.9c-0.1,0.2-0.2,0.3-0.5,0.6c-0.6,0.5-1.7,0.5-1.7,0.5l-0.1,0l0,0.1
		c0,0-0.1,0.5,0.5,0.8l0.2,0.1C93.8,67.3,93.8,67.5,94.4,68.1z"/>
	<path class="st1" d="M513.7,199.1c6.3-0.1,7.9,6.5,7.9,11.6c0,6.8-3,11.8-8,11.8c-5.2,0-7.5-4.9-7.5-11.5v-7.7
		C507,201.7,509.4,199.2,513.7,199.1 M506,198.9v-10c0-1.5,0.8-2.2,2.3-2.2h15.5V182H508c-5.3,0-7.4,2.5-7.4,7.4v21.6
		c0,9.6,4.9,15.6,12.7,15.6c7,0,13.7-4.9,13.7-16.1c0-9.2-4.8-15.6-13.2-15.6C510.4,195,507.9,196.8,506,198.9z"/>
	<path class="st1" d="M448.3,182.4c-1.1,5.1,2.7,5.5,4.2,9.3c0.5,1.1,0.7,2.1,0.6,3.4c-6.8,1-11.5,6.8-11.5,15.9
		c0,9.6,5.3,15.6,13.2,15.6c7,0,13.7-4.9,13.7-16.1c0-8.3-3.9-14.3-10.8-15.4c0.5-3.4-0.8-5.2-2.2-8c-0.6-1.2-0.8-3.4-0.6-4.7
		C453.2,182.4,450.1,182.4,448.3,182.4 M455.2,199.1c6.3,0,7.9,6.5,7.9,11.6c0,6.8-3,11.8-8,11.8c-5.2,0-8-5-8-11.7
		C447.1,205.2,449,199.1,455.2,199.1z"/>
	<path class="st1" d="M568,199.3c5.4,0,7.5,6.3,7.5,11.4c0,3.9,0.2,9.1-2.4,15.3h5.3c2.5-4.7,2.6-11.6,2.6-15.5
		c0-9.2-5.3-15.6-12.8-15.6h-0.2c-7.5,0-12.8,6.3-12.8,15.6c0,3.9,0.1,10.7,2.6,15.5h5.3c-2.6-6.2-2.4-11.4-2.4-15.3
		C560.5,205.6,562.6,199.3,568,199.3"/>
	<path class="st1" d="M539.1,235.5c8.8,0.1,13-6,13-12.2c0-5.7-2.5-10.9-7.3-11.9v-0.1c4.8-1.8,5.8-4.5,5.8-8.8c0-4-0.8-6.1-1.4-6.9
		h-5.5l0,0.1c1.5,2.3,1.6,4.7,1.5,7.4c-0.2,4.8-2.6,6.4-6.5,6.4h-1.3v4.1h1.3c5.1,0,7.8,3.9,7.8,9.6c0,3.2-2,8.4-7.5,8.2
		c-5.6-0.2-6.5-5.4-6.5-9.9h-5.4C526.9,228.6,530.5,235.4,539.1,235.5"/>
	<path class="st1" d="M484.4,222.6c-5,0-7.8-4.7-7.5-10.8h-5.4c-0.9,9,5.1,15,12.7,15c15.2,0,17.5-21,4.8-26.6
		c-2.8-1.2-4.8-2.3-4.8-5.2l0-0.2h-5.1c0,0.3,0,0.6,0,0.9c0,4.7,3.2,6.1,6.8,8.1C494.6,208.6,492.8,222.6,484.4,222.6"/>
	<path class="st1" d="M172.2,185.7c0-7.5,2.2-15.2,10.8-15.4c8.6,0.3,10.8,7.9,10.8,15.4c0,7.5-2.2,15.2-10.8,15.4
		C174.5,200.9,172.2,193.2,172.2,185.7 M354,190.9c7.9,0,7.2-4.7,7.2-10.2c0-6.2-2-10-7.2-10.5v-3.6c6.8,0.4,10.7,1.5,14,5.1
		c6.9,7.3,4.9,16.8-3.4,20.8v0.6c5.5,2.3,8.2,6.4,8.8,12.9c0.1,1.7,0.1,3.1-0.1,4.9c-1.4,11.3-9.8,16.1-21.7,16.4
		c-7.7-0.2-12.7-2.4-16.3-6.2c-3.2-3.6-4.2-8.3-4.2-14h11.3c-0.4,7,0.6,16.4,9.2,16.6c9.4-0.3,11-9.2,11-16.8c0-1,0-2-0.2-3
		c-0.8-6.1-4.1-8.9-7.9-8.9c-0.8,0-3.5,0-4.3,0v-4H354z M395.9,167.9c-0.2,7.1,0.3,10.5,7,12.5c11.2,3.2,19.2,7.2,19.2,24.7
		c0,7.5-1.9,12.1-5.5,16.1c-3.6,3.8-9.2,6.1-16.9,6.2c-7.7-0.2-13.3-2.4-16.9-6.2c-3.6-4-5.4-9.4-5.5-16.1c0-0.7,0.1-1.3,0.1-2h11.3
		l0,2c0,7.6,1.4,18.7,11,18.7c9.6,0,11-9.5,11-18.5c0-8.2-0.2-17.6-9-20.9c-7.6-2.8-17.1-2.8-17.1-16.5H395.9z M256.6,226.1h17.1
		v-2.9H267c3.3-2.2,5.8-5.6,6.9-10.1c2.7-10.2,3.1-31.2-4.3-39.8c-4.4-5.1-10-6.6-16.4-6.6c-6.4,0-12,1.6-16.4,6.6
		c-7.4,8.6-7.1,29.6-4.3,39.8c2,8.3,8.7,12.9,17.2,13v-3.3c-4.4-0.7-7.1-4.4-7.2-11.8c-0.1-7.1-1.3-24,1.8-33.9
		c1.3-4.3,3.9-6.8,8.9-6.8c5.1,0,7.6,2.5,8.9,6.8c3.1,9.9,1.9,26.8,1.8,33.9c-0.1,7.4-2.9,11.3-7.2,12v0.3V226.1z M293.2,205.1
		c0-0.3,0-13.5,0-13.7c3.6-4.8,12-6.2,17-2.4c4.5,3.4,4.9,10.7,4.9,16.3c0,7.6-1.7,18.2-11.1,18.5
		C294.7,223.5,293.2,212.7,293.2,205.1z M326.6,205.1c-0.1-6.7-1.9-12.1-5.5-16.1c-2.2-2.3-5.1-4.1-8.8-5.1
		c-7.3-2.1-13.3-1.2-18.8,2.4v-7.9c0-6.4,3.4-8.2,8.5-7.8c5.7,0.4,11.2,4.7,20.3,1.6l-1.2-5.5c-5.1,1.9-8.2,2.2-15.5,1
		c-3.4-0.6-6.6-1-9.5-1c-10.7-0.1-14.1,4.5-14.1,14.2l0,25.3c0.2,14.4,8,20.9,22.4,21.2c7.7-0.2,13.3-2.4,16.9-6.2
		C324.7,217.2,326.5,211.7,326.6,205.1z M203.6,185.7c0-5.1-0.7-6.5-1.9-8.7c-0.7-1.3-1.6-2.5-2.6-3.7c2-1.4,4.6-2.4,7.3-2.4
		c5.9,0,7.6,5.1,7.7,10.3c0.1,6,0.9,13.2-5.9,13.9h-3.4v4h4.4c1,0.1,2,0.6,2.8,1.6c1.4,1.9,2.2,5.3,2.1,9.9
		c-0.2,8.6-4.6,13.3-15,13.3c-7,0-10.7-5.6-10.8-12h-11.1c0.6,11.2,10.7,15.6,22,15.6c10.7,0,26-3.2,26-16.2
		c0-7.8-3.5-12.3-8.2-14.1v-0.4c5-2.3,7.7-7.4,7.8-12.7c0.3-10.6-6.9-17-18.3-17.3c-4.6,0.1-8.2,1.7-10.6,3.7
		c-3.2-2.2-7.5-3.6-13-3.7c-7.1,0.2-12.3,2.3-15.6,6c-3.3,3.8-5,6.7-5.1,13.1c0.1,6.4,1.7,9.3,5.1,13.1c3.3,3.6,8.5,5.8,15.6,6
		c7.1-0.2,12.3-2.3,15.6-6C201.9,195,203.6,190.8,203.6,185.7z"/>
	<path class="st1" d="M423.3,86.4c4.7,0,8.3,3.6,8.3,8.2c0,4.7-3.7,8.3-8.4,8.3c-4.7,0-8.4-3.6-8.4-8.3
		C414.8,90,418.6,86.4,423.3,86.4L423.3,86.4z M423.2,87.8c-3.7,0-6.6,3.1-6.6,6.8c0,3.8,2.8,6.8,6.7,6.8c3.7,0,6.5-3,6.5-6.8
		C429.8,90.9,427.1,87.8,423.2,87.8L423.2,87.8z M421.8,99.2h-1.6v-8.7c0.9-0.2,1.8-0.3,3-0.3c1.5,0,2.2,0.3,2.8,0.7
		c0.5,0.4,0.9,1,0.9,1.8c0,1.1-0.8,1.8-1.7,2.1v0.1c0.8,0.3,1.2,1,1.4,2.1c0.3,1.3,0.4,1.9,0.6,2.2h-1.7c-0.3-0.3-0.5-1.1-0.7-2.3
		c-0.2-0.9-0.8-1.3-2-1.3h-1V99.2z M421.8,94.3h1.1c1.2,0,2.2-0.4,2.2-1.4c0-0.8-0.5-1.4-2.1-1.4c-0.6,0-1,0.1-1.2,0.1V94.3z"/>
</g>
<g class="st4">
	<circle class="st5" cx="898.1" cy="90.3" r="74"/>
	<path class="st5" d="M1189.5,143.3c4.9-0.2,5.8-0.9,7.3-4.9c2.4-6.1,5.4-15.2,8.3-23.4l9.5-27.2h9l17.2,51.1
		c1.3,3.9,2.3,4.2,6.8,4.4v3h-24.8v-3l4.5-0.3c2.1-0.2,2.5-1.3,1.8-3.4l-4.9-14.8h-17.3c-1.6,5.4-3.3,10.2-4.4,15
		c-0.5,2.1-0.4,3,1.7,3.2l4.8,0.3v3h-19.4V143.3z M986.4,143.3c6.5-0.3,7-0.6,7-5.1V95.8c0-4.5-0.5-4.7-7-5.1v-3h44.2v14.9h-3
		c-2.1-8.4-3.8-11.3-12.8-11.3h-6.7c-2.4,0-3,0.5-3,3v20.8h10.5c6,0,6.8-1.7,7.9-7.5l3,0v19h-3c-1.1-5.9-1.9-7.5-7.9-7.5h-10.5v19
		c0,4.6,0.6,4.8,8.4,5.2v3h-27.1V143.3z M1057.2,138.3c0,4.5,0.5,4.7,7,5.1v3h-25.7v-3c6.5-0.3,7-0.6,7-5.1V95.8
		c0-4.5-0.5-4.7-7-5.1v-3h25.7v3c-6.5,0.3-7,0.6-7,5.1L1057.2,138.3z M1091.1,87.8c9.5,14.2,19.2,28.3,28.9,42.6l0.3,0.1v-22.9
		c0-5.9-0.2-9.2-0.5-12.2c-0.3-2.8-1.3-4-3.6-4.2l-4.5-0.4v-3h20.2v3l-3,0.3c-2,0.3-3,1.5-3.4,4.3c-0.3,2.9-0.4,6.2-0.4,12.2v38.7
		h-8c-10.7-16.1-21.6-32.3-32.5-48.5h-0.3v28.7c0,5.9,0.2,9.2,0.5,12.2c0.3,2.8,1.3,4,3.6,4.2l4.5,0.4v3h-20.2v-3l3-0.3
		c2-0.3,3-1.5,3.4-4.3c0.3-2.9,0.4-6.2,0.4-12.2l0-30.7c0-4.5-0.5-4.7-7-5.1v-3H1091.1z M1185.6,143.5c-4.7,2.7-13.2,4.1-19.4,4.1
		c-10,0-17.7-2.4-22.8-7.2c-5.4-5.2-8.2-12.9-8.2-22.6c0-9.5,2.4-17.2,7.5-22.7c5.1-5.4,13.2-8.5,24.4-8.5c5.5,0,13.5,1,18.1,3.6
		v14.4h-3c-1.8-7.5-5.8-14.4-15.9-14.4c-15.5,0-18.2,17.6-18.2,26.5c0,9.8,2.6,27.4,18.6,27.4c10.1,0,13.9-7,16.8-16.1h3
		L1185.6,143.5z M1222.8,121.1l-7.3-22.7h-0.2c-0.9,2.7-6.3,19.7-7.4,22.7H1222.8z M1102.1,146.4h0.2"/>
	<path class="st5" d="M1269.8,103.4c2.4-0.6,6.4-1,10.2-1c5.6,0,9.2,1,11.9,3.2c2.3,1.7,3.7,4.3,3.7,7.7c0,4.3-2.8,7.9-7.3,9.5v0.2
		c4.1,1,9,4.4,9,10.8c0,3.7-1.5,6.6-3.7,8.7c-3,2.8-7.9,4.1-14.9,4.1c-3.9,0-6.8-0.3-8.7-0.5V103.4z M1275.4,121.2h5.1
		c5.9,0,9.3-3.2,9.3-7.3c0-5-3.8-7.1-9.5-7.1c-2.6,0-4.1,0.2-5,0.4L1275.4,121.2z M1326.4,138.7c0,2.7,0.1,5.3,0.5,7.5l-5.1,0
		l-0.5-3.9h-0.2c-1.7,2.5-5.1,4.6-9.5,4.6c-6.3,0-9.5-4.4-9.5-9c0-7.5,6.7-11.7,18.8-11.6v-0.6c0-2.5-0.7-7.2-7.1-7.2
		c-3,0-6,0.8-8.2,2.3l-1.3-3.8c2.6-1.6,6.4-2.7,10.3-2.7c9.5,0,11.9,6.5,11.9,12.7L1326.4,138.7z M1320.9,130.3
		c-6.2-0.1-13.2,1-13.2,7c0,3.7,2.4,5.4,5.3,5.4c4.1,0,6.8-2.6,7.7-5.2c0.2-0.6,0.3-1.3,0.3-1.8L1320.9,130.3z M1335.6,123.5
		c0-3.3-0.1-5.9-0.3-8.4h5l0.3,5.2h0.1c1.5-2.9,5.2-5.8,10.3-5.8c4.3,0,11,2.6,11,13.3v18.6h-5.7v-18c0-5-1.9-9.2-7.2-9.2
		c-3.7,0-6.6,2.6-7.6,5.8c-0.3,0.7-0.4,1.7-0.4,2.6l0,18.8h-5.7V123.5z M1376.9,129.3h0.1c0.8-1.1,1.8-2.4,2.7-3.5l9.2-10.8h6.8
		l-12,12.8l13.7,18.4h-7l-10.7-15l-2.9,3.2v11.7h-5.6v-45.8h5.6V129.3z M1275.4,141.9c1.2,0.2,2.7,0.3,4.7,0.3
		c5.8,0,11.1-2.1,11.1-8.4c0-5.9-5.1-8.4-11.2-8.4h-4.6V141.9z"/>
	<path class="st5" d="M898.4,156.9c-36.8,0-66.6-29.8-66.6-66.6c0-36.8,29.8-66.6,66.6-66.6c36.8,0,66.6,29.8,66.6,66.6
		C965,127,935.2,156.9,898.4,156.9"/>
	<path class="st6" d="M925.4,111.8c0,0.1,0.1,0.1,0.1,0.2C925.5,112,925.4,111.8,925.4,111.8"/>
	<path class="st5" d="M965.8,90.5C965.8,90.5,965.8,90.5,965.8,90.5L965.8,90.5C965.8,90.5,965.8,90.5,965.8,90.5"/>
	<path class="st7" d="M904.8,106c-1.1,0-4.3,3.7-8.4-9.2c0-0.1,0.1-0.1,0.1-0.2c1.1-1.4,2.2-3.9,4.9-1.6c2.7,2.3-0.2,2.4,4.9,5.2
		c1.5,0.8,2.5,1.7,3.4,2.4C908.1,104,905.5,106,904.8,106 M898.1,28.3c-34.2,0-62,27.7-62,62c0,23,12.5,43.1,31.2,53.8
		c0,0,0.1,0,0.1,0.1c2.1,0.3,3.8,0.3,5.3,0.2c4.7-0.5,7-2.7,10.4-4.2c3.7-1.7,8.5-5.3,8.9-9.4c0.3-2.3,2-8.2,1.3-14
		c-0.8-5.8,1.1-4.4-3.3-9.6c-0.8-0.9-1.5-1.7-2.3-2.4c-0.2,0.4-0.8,0.1-2.2-1.9c0,0,0,0,0,0c-1.2-0.9-2.3-1.6-3.1-2.1
		c-0.2,0-0.5,0-0.9-0.1c-3-0.8-0.1,3.1-2.4,2.9c-2.3-0.2-1.6,3.6-2.8,3c-1.2-0.5,0.8-3-2.2-1.5c-3,1.5-2.4,1-2.9,0.1
		c-0.6-0.9,0.7-1.7-1.5-2.4c-2.3-0.7-0.8,1.2-3.7,1.4c-2.9,0.2-1.7,1.7-3,3.3c-1.3,1.6-1.1-0.7-3.2,0.5c-2.1,1.2-0.5,2.3-1,3.1
		c-0.5,0.8-0.6-0.1-0.7-0.7c-0.2-0.6-1.3,0.1-0.9-1.5c0.4-1.5,0.7-2.6,1.7-3.1c1-0.5,0.4-1.3-1.1-1.5c-1.5-0.2-0.7-0.4-1.4-1.3
		c-0.7-0.9-2.2-1-3.4-0.4c-1.2,0.6-1.2,1.1-1.2,1.1s-1.9-1.4,0.3-1.5c2.1-0.2,1.7-1.4,2.8-2.1c1.1-0.7,0.7-0.7,0.3-1.2
		c-0.4-0.5-1.3-0.5,0.8-0.9c2-0.4,0.9-0.8,2.6-2.2c1.7-1.5,2.3,1.8,3.3-0.9c0.9-2.7-0.3-4.1-0.3-4.6c-0.1-0.5-1.3-2.3,0.3-1.8
		c1.7,0.5,2.3,0.8,3.7-0.9c1.5-1.7,1.5-0.5,2-1.7c0.5-1.2,2.9-1.7,1.4-3.1c-1.5-1.4-1.3,0.6-2.9-0.3c-1.6-0.9,0.2-1.7-1-2
		c-1.2-0.4-0.4,1.1-3.3,1c-2.9-0.1-2.1,1.4-3.7,1.8c-1.6,0.4-0.6,2-2.4,1.7c-1.7-0.2-0.8-1-2.4-2c-1.6-1-1.9-0.4-3.6-0.4
		c-1.7,0-2.2,2.7-2.3,0.9c-0.1-1.9-0.7-2.5,0.3-3.9c0.9-1.4-0.3-1.3,2-1.4c2.4-0.2,0.7-2,1.9-2.8c1.3-0.7-0.3-2.2,1.6-3
		c2-0.8,4.3-0.1,4.3-0.1c1.3-0.7-1.1-0.2,3.3-2.2c4.4-2,2-0.2,4.4-0.5c2.4-0.3,0.9-1,2.4-0.9c1.5,0.1,2,1.4,3.7,0.7
		c1.7-0.6,2.5,0.6,2.5-0.8c0-1.5-1.8-1.3-2.5-1.9c-0.6-0.6-5.3,1.9-4.6,0.3c0.8-1.5,0-0.7-0.1-1.4c-0.1-0.7-3.1-1.2-3.5-1.6
		c-0.4-0.4,2.1,0-0.7-1.5c-2.6-1.4-1.1-0.1-2.4-0.4c-1.8-0.5,0-1.1-1.1-1.4c-2.9-0.6-2.3-0.7-1.2-1.9c1-1.2,0.2-2.6,0.2-3.6
		c-0.1-1-1.7-0.2-1.5-1.2c0.3-1,1.6-1.3,2.1-1.6c0.5-0.2-0.1-3.6,0.7-4.5c0.7-0.8,1.6,2.2,4.1,2.7c2.5,0.5,1.5,1.6,4.6-0.1
		c3.1-1.7,3.3,0.3,3.3,0.3s0.2,0.8,1.6,0.9c1.4,0.2,0.6,4.5,1.5,3.2c0.9-1.2,2.4,0.2,2.7-0.8c0.3-1,2.8,1.8,0.3-2.6
		c-2.5-4.4-6.3,1.1-5.3-2.4c1-3.6-1-4.7,0.6-5.8c1.6-1.1-3.4-2.5,1.9-2.5c5.4,0.1,5.6-2.7,5.6-2.7c0,0-0.9-1.6,1.5-2.4
		c2.4-0.8,2.2-0.2,2.2-0.2s-0.4,2,1.3,0c1.6-2,0.5-0.8,1.6-0.8c1.1,0-0.5-1.4,2.6-0.7c1.9,0.4,0.6,2.6,3.8,2.2
		c0.9-0.1,0.4-2.9,0.4-2.9c1-1,0.9-1.3,2-1c1.1,0.3,2.1-0.8,2.1-0.8s1.7,1.9,5.1,1c0.4-0.1,0.8,0.4,0.8,1.4c0.1,1,1.8,0.7,1.8,0.7
		s-0.6,1.5,1.9,1.4c0,0,1.1-1.3,2.1-0.4c1,0.8,0.1,2.8,0.6,3.6c0.5,0.7,0.5,0.9,2.7,0.7c2.2-0.1,3.6-0.4,3,1
		c-0.6,1.4,2.1,0.7,2.5,0.9c0.4,0.3-0.8,2.8-0.6,4c0.3,1.3-0.8,1.2-1.4,1.1c-0.7-0.1-1.3,1.2,0.4,1.9c1.8,0.7,1.3,1.6,4.5,0.2
		c3.2-1.4,2-0.8,4.7-0.8c1,0-0.2-0.9,1.5-2.7c0,0,0.6-2,1.9,0.7c1.3,2.8-1.4,1.4,1.2,4.3c2.5,3-0.8,1.7,3.5,3.9
		c1.8,0.9,2.1-1.4,3.1,2c1,3.4,1.6,1.9,1.9,3.7c0,0,0,1.2-4.9,0.8c-2-0.2,0.9,1.8-2,2.5c-1.3,0.3-0.7,1.9-0.3,2.7
		c0.4,0.8,5.4-0.9,8.2,1.8c0,0,0.8,1.6,3.4,2.3c2.6,0.6-1.7,2,3.5,3.1c1.8,0.4,0.5,4.5-0.1,5.1c-0.5,0.6-0.7,2,1.9,3.1
		c0,0-0.8,2.8-4.4,1.3c-3.9-1.6,0.4,0.2-3.7,0.1c-4.2-0.1,0.4,2-1.5,2c-1.9,0.1,0.3,1.6-1,3.9c-1.2,2.3,0.3,1.7,0.3,3.2
		c-0.1,1.4,2.1-1.3,3.6,0.1c1.5,1.4,2.4,3.3,6.2,2.4c3.8-0.9,2.4,1.4,3.8,2.7c1.9,1.7-1.7,0.7-2.8,0.4c0,0-1.7-0.5-2.9,0.6
		c-1.2,1.1-0.4,3-3.7,2c-3.3-1-3.2,0-3.2,0s-0.9,3.4,1.9,4.4c0.9,0.3-0.2,2.1-1.7,2.7c-1.5,0.5-2.9,0-2.7,2.6c0.2,2.6,0.1-1.3-3,1.5
		c0,0,0.7,1.4-1.3,3c-2.1,1.6-1.4,6-2.1,3.1c-0.8-3.2-3.5-2.1-3.5-2.1c-1.8-3.5-2.1-4.2-2-4.2c-1.2-2,1-2.4,0.4-2.5
		c-3.7-0.8-1.6-3.2-2.9-2.6c-1.1,0.5-3.1-1-2,2.3c1.1,3.3-1.1,0.3-1.7,0c-3.3-1.8,1-2.1-2.9-2.3c-0.6,0-1.2-0.1-1.6-0.3
		c-1.5,0.2-3.5,0.7-4.4,1.9c-1.6,2.2-4.9,2.6-5.6,4.4c-0.7,1.8-1.6,8-0.8,15c0.8,6.9,4.5,9.5,7.8,13.9c2.9,3.8,10.9,5.2,12.9,5.4
		c21.3-9.8,36.1-31.3,36.1-56.3C960,56.1,932.3,28.3,898.1,28.3 M892,97c-1.5-2.1-1.2-2.9-1.7-0.8c-0.4,2.2-2.4,2.9-2.9,3.8
		c-0.1,0.1-0.1,0.3-0.1,0.6c0,0,0,0,0.1,0.1c6.2,6.5,6.3,8.1,7.5,4.9c0.5-1.5-0.6-5-1.6-7.5C892.8,97.9,892.4,97.6,892,97z
		 M885.1,69.8c1.1,0.9,1.7,0.7,2.5,1.2c0.1,0.1,0.3,0.1,0.4,0.1c0.9-0.1,1.2-1.5,1.2-1.5V67c0-0.4-0.1-0.6-0.4-0.6
		c-0.5,0-1.2,0.7-1.6,1c-0.3,0.3-0.4,0.4-0.7,0.4c-0.3,0-0.7-0.1-1.4-0.4c-0.8-0.4-1.8-0.5-2.8-0.5c-1,0-1.9,0.2-2.2,0.7
		c-0.5,0.8-0.7,0.9-2.6,1.7l0,0l0,0c-0.3,0.4-0.4,0.6-0.4,0.9c0,0.4,0.4,0.5,0.7,0.5c0.3,0,0.6,0.1,0.7,0.3c0.1,0.2,0.3,0.3,0.6,0.3
		h0c0.7,0,1.6-0.6,2.3-1.5c0.4-0.5,0.9-0.7,1.6-0.7C883.8,69.1,884.6,69.4,885.1,69.8z M877.2,83.9c-0.1,0-0.2,0-0.3,0
		c-0.6,0-1.1-0.2-1.6-0.2c-0.2,0-0.5,0.1-0.6,0.4c-0.2,0.7-0.1,2.3-0.5,2.3c-0.5,0.1-1.8,0.1-2.1,1.4c-0.1,0.2-0.1,0.4-0.1,0.5
		c0,0.8,0.5,1.1,1.1,2.2c0.3,0.4,0.4,0.7,0.7,0.7c0.5-0.1,0.6-0.8,1.1-0.9c0.8-0.3,1-0.9,1.5-0.9c0.1,0,0.3,0,0.5,0.1
		c0.5,0.2,0.5,0.4,0.7,0.6c0.1,0.3,0.4,0.5,1.1,0.5c0.1,0,0.2,0,0.3,0c0.6,0,0.8-0.2,1-0.5c0.2-0.2,0.2-0.3,0.5-0.3
		c0.1,0,0.2,0,0.4,0.1c0.2,0.1,0.4,0.1,0.5,0.1c0.1,0,0.2,0,0.3-0.1c0.1-0.1,0.1-0.2,0.1-0.2c0-0.3-0.3-0.6-0.3-0.6l0,0l-0.7-0.4
		v-2.5c0,0,0-0.1,0-0.2c0-0.1,0-0.2-0.1-0.3c-0.1-0.1-0.3-0.2-0.5-0.2c-0.1,0-0.3,0-0.4,0c-0.1,0-0.1,0-0.2,0
		c-0.4,0-0.6-0.4-0.6-0.8c0-0.3,0.1-0.5,0.2-0.6c0.1-0.1,0.1-0.2,0.1-0.2c0-0.4-0.6-0.7-1.1-0.8c-0.2,0-0.3,0.1-0.4,0.2
		c-0.1,0.1-0.1,0.3-0.1,0.4v0.1c0,0,0,0-0.1,0C877.6,83.9,877.5,83.9,877.2,83.9z M890.5,82.9L890.5,82.9c0,0.1-0.1,0.3-0.1,0.7
		c0,0.5,0.1,1.1,0.6,1.8c0.2,0.3,0.5,0.4,0.7,0.4c0.6,0,1-0.5,1.4-0.5c0.1,0,0.1,0,0.2,0c0.1,0,0.2,0.1,0.3,0.1
		c0.3,0,0.3-0.3,0.3-0.5v0c0-0.2,0-0.2,0.1-0.2c0,0,0,0,0.1,0c0,0,0.1,0,0.2,0c0.1,0,0.1,0,0.2-0.1c0.1-0.1,0.1-0.1,0.1-0.2
		c0-0.3-0.4-0.8-0.4-1v0c0,0,0.1-0.1,0.1-0.2c-0.1-0.3-0.3-0.2-0.5-0.3c-0.2-0.1-0.4-0.2-0.4-0.4c-0.2-0.7-0.2-1.3-0.2-1.6
		c0-0.3-0.3-0.3-0.4-0.4c-0.2,0-0.2-0.1-0.3-0.1c-0.1-0.3-0.1-0.8-0.1-0.8l0,0l0,0l-0.1,0.1l0.1-0.1c0,0-0.1-0.4-0.4-0.4
		c-0.2,0-0.3,0.2-0.3,0.5c0,0.4,0,0.8-0.1,1c-0.1,0.3-0.1,0.3-0.3,0.3c0,0-0.1,0-0.1,0l-0.1,0c-0.4,0-0.4,0.4-0.4,0.7
		c0,0.5,0.1,1,0.2,1.3h-0.4H890.5z M899.2,86.5c0,0.4,0.1,0.9,0.4,1.1c0.4,0.3,1.1,0.4,1.6,0.4c0.4,0,0.9-0.1,1.1-0.4
		c0.4-0.7-0.1-0.6,0.9-1.7c1-1.1,1.8-0.7,2.6-1.2c0.6-0.5,2.2,0.1,2.8-0.9c0.4-0.8,0.9-0.7,1.6-1.6c0.2-0.4,0.3-0.4,0.4-0.6
		c0-0.2-0.2-0.2-0.2-0.2c-0.1,0-0.4,0-0.9-0.3c-0.2-0.1-0.4-0.2-0.6-0.2c-0.9,0-1.5,1-2.6,0.9c-0.7,0-0.9-0.2-1.1-0.4
		c-0.2-0.2-0.3-0.6-0.7-0.9c-0.2-0.1-0.4-0.2-0.5-0.2c-0.7,0-1.2,0.8-2.3,0.8c-0.7,0-1.1,0.1-1.3,0.4c-0.2,0.3-0.2,0.8-0.3,1.5
		c-0.1,0.6-0.1,0.8-0.1,1v0.1c0,0,0,0-0.2,0.3C899.5,84.8,899.2,85.7,899.2,86.5z M915.2,85.7c-0.1,0.1-0.3,0.3-0.3,0.5
		c0,0.2,0.1,0.3,0.3,0.5c0.2,0.2,0.4,0.2,0.5,0.2c0.3,0,0.4-0.2,0.5-0.2c0.1,0,0.3,0.1,0.7,0.4c0.4,0.4,0.6,0.6,0.6,0.8
		c0,0.2,0.2,0.4,0.4,0.4c0.2,0,0.4-0.1,0.8-0.1c0.3-0.1,0.6-0.1,0.7-0.1c0.3,0,0.2,0,0.3,0.2c0.1,0.1,0.1,0.3,0.4,0.4
		c0.2,0.1,0.1,0.1,0.3,0.2c0.2,0,0.1-0.1,0.2-0.1c0-0.1,0.1-0.3,0.7-0.7c1-0.7,1.3-1.3,1.8-1.3c0.1,0,0.2,0,0.4,0.1
		c0.2,0.1,0.3,0.1,0.3,0.2l0,0c0,0,0,0.1,0.1,0.1c0.1,0,0.1,0,0.3-0.1c0.1-0.1,0.4-0.1,0.8-0.3c0.9-0.2,1.2-0.6,1.2-0.9
		c0.1-0.3,0-0.3,0.5-0.4c0.7,0,1-0.1,1.3-0.1c0.1,0,0.2,0,0.4,0.1c0.1,0,0.2,0.1,0.2,0c0.4,0,0.8-0.5,0.8-0.8c0-0.1,0-0.1-0.1-0.2
		c-0.1-0.1-0.1-0.1-0.2-0.1c-0.1,0-0.2,0-0.4,0.1c-0.2,0.1-0.3,0.2-0.5,0.2c-0.3,0-0.5-0.4-0.9-1c-0.3-0.4-0.6-0.6-0.9-0.6
		c-0.3,0-0.6,0.2-1,0.6c-0.5,0.5-1.2,0.9-1.7,0.9c-0.1,0-0.3,0-0.4-0.1c-0.6-0.2-0.4-0.6-1.6-0.9c-0.9-0.2-1.4-0.9-2-0.9
		c-0.2,0-0.4,0.1-0.7,0.3c-0.4,0.3-0.7,0.4-0.8,0.4c-0.2,0-0.3-0.1-0.5-0.3c-0.3-0.2-0.7-0.4-1.1-0.4c-0.3,0-0.7,0.2-0.8,0.6
		c-0.1,0.6-0.8,1.1-0.8,1.7c0,0.1,0.1,0.3,0.2,0.3l0.1,0C915.4,85.5,915.3,85.6,915.2,85.7z M898.1,157.4c-37,0-67.1-30-67.1-67.1
		c0-37,30-67.1,67.1-67.1c37,0,67.1,30,67.1,67v0C965.1,127.3,935.1,157.4,898.1,157.4z M944.2,136.4c11.8-11.8,19.1-28.1,19.1-46.1
		c0-18-7.3-34.3-19.1-46.1C932.4,32.3,916.1,25,898.1,25c-18,0-34.3,7.3-46.1,19.1c-11.8,11.8-19.1,28.1-19.1,46.1
		c0,18,7.3,34.3,19.1,46.1c9.6,9.6,22.1,16.2,36.2,18.4c0.4-0.3,1.6-1.1,3.9-1.5c0.3-0.3,1.5-1.3,2.6-1.4c0.5,0,1-0.2,1.7-0.3l0.1-4
		c-0.1,0-0.3,0-0.5,0c-0.8,0-2.2-0.4-3.3-2.4c-1.6-3-1.7-5.3-2.2-6.1c0-0.1-0.1-0.2-0.1-0.3c0-0.2,0.2-0.3,0.4-0.3
		c0.9,0,3.2,1.2,4.8,3.8c0.7,1.2,1.1,2.1,1.3,2.8l0.5-3.1c0,0,0-0.2,0-0.6c0-1.1,0.1-3.5,1.4-4.3c0,0,2.6-2.3,3-3.2
		c0.2-0.3,0.3-0.5,0.5-0.6c0.3,0,0.3,0.3,0.4,0.5c0.1,0.3,0.1,0.6,0.1,1c0,1.9-0.4,5-1.3,6.2c-1.2,1.8-2.6,1.2-3.2,2
		c-0.6,0.7-1.2,3.6-1.2,5.6c0,0.2,0,0.5,0,0.7c0.1,0.9,0.1,1.6,0.1,2c0,0.1,0,0.1,0,0.1c0.4,0,0.9,0.1,1.4,0.2
		c0.8,0.3,1,0.6,1.2,0.8c0.1,0.1,0.2,0.2,1.3,0.3c0.8,0.1,1.2,0.2,1.5,0.5c0.3,0.3,0.2,0.3,0.3,0.4c0,0,0.2,0.1,0.6,0.1
		c1.7,0,3.4,0.8,3.4,0.8l0.5,0.3C921.7,152.8,934.5,146.1,944.2,136.4z M901.1,45.8c0-0.1-0.2,0-0.2,0c-0.3,0-0.7,0-0.8,0.1
		c-0.1,0.1-0.2,0-0.3-0.1l-0.1-0.1c0,0-0.1-0.2-0.2-0.3c0-0.1-0.2-0.1-0.2-0.2c-0.1,0-0.2,0.2-0.2,0.2c-0.1,0.3-0.2,0.6-0.2,0.9
		c0,0.4-0.1,0.8-0.3,1.3l-0.1,0.3c-0.3,0.5-0.4,0.8-0.4,1.1c0,0.2,0.1,0.3,0.2,0.4l0.5,0.3c0.3,0.1,0.6,0.2,0.6,0.8
		c0,0.1,0,0.3-0.1,0.4c-0.1,0.4-0.1,0.6-0.1,0.8c0,0.4,0.2,0.7,0.9,1.3c0.3,0.3,0.4,0.4,0.4,0.4c0.1-0.1,0.1-0.4,0.1-0.7l0.2-1.3
		c0.2-1.1,0.6-1.4,0.9-1.8c0.3-0.3,0.6-0.5,0.8-1.2l0.2-0.6c0.1-0.2,0.1-0.3,0.1-0.4c0-0.2-0.1-0.2-0.5-0.4l-0.7-0.3
		c-0.5-0.2-0.7-0.4-0.7-0.6v-0.1C900.8,46,901.1,46,901.1,45.8z M918.4,68.1l0.5,0.6c0.3,0.4,0.4,0.4,0.8,0.1l0.3-0.2
		c0.5-0.3,0.6-0.8,0.6-1.2c0-0.2,0.1-0.4,0.2-0.5c0.1,0,0.2,0,0.3,0c0.2,0.1,0.4,0,0.6,0c0.2-0.1,0.3-0.4,0.4-0.7
		c0-0.1,0.1-0.3,0.1-0.3c0.3,0,0.4-0.2,0.5-0.4c0.1-0.2,0.2-0.5,0.7-0.5c0.3,0,0.5-0.1,0.6-0.3c0.2-0.4,0-0.9,0-1l-0.1-0.1l-0.1,0
		l-1.3,0.5c-0.3,0.1-0.5,0.1-0.7,0.1c-0.3-0.1-0.4-0.4-0.4-0.4c0,0,0-0.1-0.1-0.2c-0.1-0.1-0.3,0-0.9,0.6l-0.7,0.9
		c-0.1,0.2-0.2,0.3-0.5,0.6c-0.6,0.5-1.7,0.5-1.7,0.5l-0.1,0l0,0.1c0,0-0.1,0.5,0.5,0.8l0.2,0.1C917.8,67.3,917.8,67.5,918.4,68.1z"
		/>
	<path class="st5" d="M1337.7,199.1c6.3-0.1,7.9,6.5,7.9,11.6c0,6.8-3,11.8-8,11.8c-5.2,0-7.5-4.9-7.5-11.5v-7.7
		C1331,201.7,1333.4,199.2,1337.7,199.1 M1330,198.9v-10c0-1.5,0.8-2.2,2.3-2.2h15.5V182H1332c-5.3,0-7.4,2.5-7.4,7.4v21.6
		c0,9.6,4.9,15.6,12.7,15.6c7,0,13.7-4.9,13.7-16.1c0-9.2-4.8-15.6-13.2-15.6C1334.4,195,1331.9,196.8,1330,198.9z"/>
	<path class="st5" d="M1272.3,182.4c-1.1,5.1,2.7,5.5,4.2,9.3c0.5,1.1,0.7,2.1,0.6,3.4c-6.8,1-11.5,6.8-11.5,15.9
		c0,9.6,5.3,15.6,13.2,15.6c7,0,13.7-4.9,13.7-16.1c0-8.3-3.9-14.3-10.8-15.4c0.5-3.4-0.8-5.2-2.2-8c-0.6-1.2-0.8-3.4-0.6-4.7
		C1277.2,182.4,1274.1,182.4,1272.3,182.4 M1279.2,199.1c6.3,0,7.9,6.5,7.9,11.6c0,6.8-3,11.8-8,11.8c-5.2,0-8-5-8-11.7
		C1271.1,205.2,1273,199.1,1279.2,199.1z"/>
	<path class="st5" d="M1392,199.3c5.4,0,7.5,6.3,7.5,11.4c0,3.9,0.2,9.1-2.4,15.3h5.3c2.5-4.7,2.6-11.6,2.6-15.5
		c0-9.2-5.3-15.6-12.8-15.6h-0.2c-7.5,0-12.8,6.3-12.8,15.6c0,3.9,0.1,10.7,2.6,15.5h5.3c-2.6-6.2-2.4-11.4-2.4-15.3
		C1384.5,205.6,1386.6,199.3,1392,199.3"/>
	<path class="st5" d="M1363.1,235.5c8.8,0.1,13-6,13-12.2c0-5.7-2.5-10.9-7.3-11.9v-0.1c4.8-1.8,5.8-4.5,5.8-8.8
		c0-4-0.8-6.1-1.4-6.9h-5.5l0,0.1c1.5,2.3,1.6,4.7,1.5,7.4c-0.2,4.8-2.6,6.4-6.5,6.4h-1.3v4.1h1.3c5.1,0,7.8,3.9,7.8,9.6
		c0,3.2-2,8.4-7.5,8.2c-5.6-0.2-6.5-5.4-6.5-9.9h-5.4C1350.9,228.6,1354.5,235.4,1363.1,235.5"/>
	<path class="st5" d="M1308.4,222.6c-5,0-7.8-4.7-7.5-10.8h-5.4c-0.9,9,5.1,15,12.7,15c15.2,0,17.5-21,4.8-26.6
		c-2.8-1.2-4.8-2.3-4.8-5.2l0-0.2h-5.1c0,0.3,0,0.6,0,0.9c0,4.7,3.2,6.1,6.8,8.1C1318.6,208.6,1316.8,222.6,1308.4,222.6"/>
	<path class="st5" d="M996.2,185.7c0-7.5,2.2-15.2,10.8-15.4c8.6,0.3,10.8,7.9,10.8,15.4c0,7.5-2.2,15.2-10.8,15.4
		C998.5,200.9,996.2,193.2,996.2,185.7 M1178,190.9c7.9,0,7.2-4.7,7.2-10.2c0-6.2-2-10-7.2-10.5v-3.6c6.8,0.4,10.7,1.5,14,5.1
		c6.9,7.3,4.9,16.8-3.4,20.8v0.6c5.5,2.3,8.2,6.4,8.8,12.9c0.1,1.7,0.1,3.1-0.1,4.9c-1.4,11.3-9.8,16.1-21.7,16.4
		c-7.7-0.2-12.7-2.4-16.3-6.2c-3.2-3.6-4.2-8.3-4.2-14h11.3c-0.4,7,0.6,16.4,9.2,16.6c9.4-0.3,11-9.2,11-16.8c0-1,0-2-0.2-3
		c-0.8-6.1-4.1-8.9-7.9-8.9c-0.8,0-3.5,0-4.3,0v-4H1178z M1219.9,167.9c-0.2,7.1,0.3,10.5,7,12.5c11.2,3.2,19.2,7.2,19.2,24.7
		c0,7.5-1.9,12.1-5.5,16.1c-3.6,3.8-9.2,6.1-16.9,6.2c-7.7-0.2-13.3-2.4-16.9-6.2c-3.6-4-5.4-9.4-5.5-16.1c0-0.7,0.1-1.3,0.1-2h11.3
		l0,2c0,7.6,1.4,18.7,11,18.7c9.6,0,11-9.5,11-18.5c0-8.2-0.2-17.6-9-20.9c-7.6-2.8-17.1-2.8-17.1-16.5H1219.9z M1080.6,226.1h17.1
		v-2.9h-6.8c3.3-2.2,5.8-5.6,6.9-10.1c2.7-10.2,3.1-31.2-4.3-39.8c-4.4-5.1-10-6.6-16.4-6.6c-6.4,0-12,1.6-16.4,6.6
		c-7.4,8.6-7.1,29.6-4.3,39.8c2,8.3,8.7,12.9,17.2,13v-3.3c-4.4-0.7-7.1-4.4-7.2-11.8c-0.1-7.1-1.3-24,1.8-33.9
		c1.3-4.3,3.9-6.8,8.9-6.8c5.1,0,7.6,2.5,8.9,6.8c3.1,9.9,1.9,26.8,1.8,33.9c-0.1,7.4-2.9,11.3-7.2,12v0.3V226.1z M1117.2,205.1
		c0-0.3,0-13.5,0-13.7c3.6-4.8,12-6.2,17-2.4c4.5,3.4,4.9,10.7,4.9,16.3c0,7.6-1.7,18.2-11.1,18.5
		C1118.7,223.5,1117.2,212.7,1117.2,205.1z M1150.6,205.1c-0.1-6.7-1.9-12.1-5.5-16.1c-2.2-2.3-5.1-4.1-8.8-5.1
		c-7.3-2.1-13.3-1.2-18.8,2.4v-7.9c0-6.4,3.4-8.2,8.5-7.8c5.7,0.4,11.2,4.7,20.3,1.6l-1.2-5.5c-5.1,1.9-8.2,2.2-15.5,1
		c-3.4-0.6-6.6-1-9.5-1c-10.7-0.1-14.1,4.5-14.1,14.2l0,25.3c0.2,14.4,8,20.9,22.4,21.2c7.7-0.2,13.3-2.4,16.9-6.2
		C1148.7,217.2,1150.5,211.7,1150.6,205.1z M1027.6,185.7c0-5.1-0.7-6.5-1.9-8.7c-0.7-1.3-1.6-2.5-2.6-3.7c2-1.4,4.6-2.4,7.3-2.4
		c5.9,0,7.6,5.1,7.7,10.3c0.1,6,0.9,13.2-5.9,13.9h-3.4v4h4.4c1,0.1,2,0.6,2.8,1.6c1.4,1.9,2.2,5.3,2.1,9.9
		c-0.2,8.6-4.6,13.3-15,13.3c-7,0-10.7-5.6-10.8-12h-11.1c0.6,11.2,10.7,15.6,22,15.6c10.7,0,26-3.2,26-16.2
		c0-7.8-3.5-12.3-8.2-14.1v-0.4c5-2.3,7.7-7.4,7.8-12.7c0.3-10.6-6.9-17-18.3-17.3c-4.6,0.1-8.2,1.7-10.6,3.7
		c-3.2-2.2-7.5-3.6-13-3.7c-7.1,0.2-12.3,2.3-15.6,6c-3.3,3.8-5,6.7-5.1,13.1c0.1,6.4,1.7,9.3,5.1,13.1c3.3,3.6,8.5,5.8,15.6,6
		c7.1-0.2,12.3-2.3,15.6-6C1025.9,195,1027.6,190.8,1027.6,185.7z"/>
	<path class="st5" d="M1247.3,86.4c4.7,0,8.3,3.6,8.3,8.2c0,4.7-3.7,8.3-8.4,8.3c-4.7,0-8.4-3.6-8.4-8.3
		C1238.8,90,1242.6,86.4,1247.3,86.4L1247.3,86.4z M1247.2,87.8c-3.7,0-6.6,3.1-6.6,6.8c0,3.8,2.8,6.8,6.7,6.8c3.7,0,6.5-3,6.5-6.8
		C1253.8,90.9,1251.1,87.8,1247.2,87.8L1247.2,87.8z M1245.8,99.2h-1.6v-8.7c0.9-0.2,1.8-0.3,3-0.3c1.5,0,2.2,0.3,2.8,0.7
		c0.5,0.4,0.9,1,0.9,1.8c0,1.1-0.8,1.8-1.7,2.1v0.1c0.8,0.3,1.2,1,1.4,2.1c0.3,1.3,0.4,1.9,0.6,2.2h-1.7c-0.3-0.3-0.5-1.1-0.7-2.3
		c-0.2-0.9-0.8-1.3-2-1.3h-1V99.2z M1245.8,94.3h1.1c1.2,0,2.2-0.4,2.2-1.4c0-0.8-0.5-1.4-2.1-1.4c-0.6,0-1,0.1-1.2,0.1V94.3z"/>
</g>
</svg>
