<svg xmlns="http://www.w3.org/2000/svg" xmlns:xlink="http://www.w3.org/1999/xlink" preserveAspectRatio="xMidYMid" width="299.03" height="185" viewBox="0 0 299.03 185">
  <defs>
    <style>
      .cls-1 {
        fill: #26262a;
        opacity: 0.05;
        fill-rule: evenodd;
      }
    </style>
  </defs>
  <path d="M0.229,351.885 C8.537,343.552 16.510,335.523 24.553,327.564 C25.071,327.051 26.121,326.889 26.924,326.886 C39.473,326.845 52.022,326.858 64.569,326.858 C65.251,326.858 65.932,326.858 67.095,326.858 C66.363,326.277 65.987,325.949 65.582,325.664 C33.000,302.714 11.551,271.959 3.565,232.803 C-6.800,181.981 5.682,136.827 40.417,98.281 C58.066,78.693 79.847,65.203 104.943,57.184 C106.353,56.733 106.696,56.064 106.686,54.663 C106.622,45.269 106.632,35.873 106.687,26.478 C106.689,25.691 106.957,24.685 107.481,24.154 C115.200,16.311 122.984,8.531 130.758,0.739 C130.961,0.535 131.205,0.372 131.677,-0.012 C131.677,17.171 131.677,34.043 131.677,51.221 C144.272,49.724 156.686,49.660 169.296,51.237 C169.332,50.412 169.389,49.752 169.389,49.092 C169.397,41.639 169.420,34.185 169.369,26.731 C169.362,25.450 169.699,24.525 170.627,23.603 C178.079,16.199 185.480,8.742 192.889,1.295 C193.277,0.908 193.609,0.466 194.422,0.200 C194.422,0.913 194.422,1.626 194.422,2.340 C194.422,19.752 194.444,37.165 194.383,54.577 C194.378,56.102 194.826,56.722 196.268,57.191 C247.610,73.873 285.341,115.178 297.415,167.878 C298.044,170.620 298.586,173.388 299.013,176.168 C299.127,176.908 298.916,177.988 298.425,178.488 C291.285,185.762 284.071,192.964 276.872,200.178 C276.713,200.339 276.498,200.447 276.106,200.720 C275.494,167.326 264.067,138.467 241.368,114.242 C227.962,99.935 210.932,89.154 194.528,83.228 C194.492,84.078 194.426,84.852 194.426,85.626 C194.422,115.002 194.410,144.378 194.457,173.754 C194.460,175.336 193.982,176.418 192.877,177.513 C185.639,184.687 178.460,191.925 171.275,199.154 C170.795,199.637 170.417,200.220 169.990,200.757 C169.790,200.689 169.592,200.621 169.394,200.553 C169.394,199.859 169.394,199.166 169.394,198.471 C169.394,158.761 169.394,119.050 169.393,79.340 C169.393,76.651 169.395,76.628 166.657,76.256 C155.264,74.704 143.881,74.887 132.509,76.484 C132.331,76.510 132.160,76.599 131.709,76.754 C131.709,77.460 131.709,78.245 131.709,79.030 C131.709,110.661 131.700,142.292 131.738,173.922 C131.740,175.353 131.328,176.355 130.318,177.358 C122.952,184.671 115.642,192.042 108.311,199.392 C107.883,199.821 107.429,200.227 106.708,200.905 C106.708,161.518 106.708,122.481 106.708,83.084 C104.248,84.099 102.031,84.895 99.914,85.902 C58.023,105.830 32.736,138.617 26.291,184.731 C17.072,250.696 62.131,312.636 127.315,324.648 C134.883,326.042 142.682,326.724 150.377,326.762 C191.456,326.965 232.535,326.858 273.615,326.858 C274.225,326.858 274.837,326.858 275.775,326.858 C275.349,327.407 275.139,327.743 274.868,328.015 C267.279,335.637 259.707,343.274 252.057,350.833 C251.400,351.481 250.237,351.934 249.309,351.935 C166.962,351.985 84.616,351.982 2.268,351.979 C1.726,351.979 1.185,351.931 0.229,351.885 Z" class="cls-1"/>
</svg>
