<?xml version="1.0" encoding="iso-8859-1"?>
<!-- Generator: Adobe Illustrator 19.0.0, SVG Export Plug-In . SVG Version: 6.00 Build 0)  -->
<svg xmlns="http://www.w3.org/2000/svg" xmlns:xlink="http://www.w3.org/1999/xlink" version="1.1" id="Capa_1" x="0px" y="0px" viewBox="0 0 504.128 504.128" style="enable-background:new 0 0 504.128 504.128;" xml:space="preserve" width="512" height="512">
<g>
	<polygon style="fill:#FABA45;" points="452.399,187.984 252.064,55.658 51.729,187.984 51.729,496.628 452.399,496.628  "/>
	<rect x="195.969" y="276.144" style="fill:#E95B2D;" width="112.189" height="220.485"/>
	<circle style="fill:#E95B2D;" cx="252.064" cy="193.461" r="47.037"/>
	<polygon style="fill:#E95B2D;" points="88.602,130.005 88.602,40.743 136.623,40.743 136.623,97.271  "/>
	<path style="fill:#0F2639;" d="M44.229,183.949v320.179h144.24h127.189h144.241V183.949L252.064,46.669L44.229,183.949z    M310.553,103.279H193.575l58.489-38.633L310.553,103.279z M315.658,393.886h129.241v40.122H315.658V393.886z M315.658,378.886   v-40.121h129.241v40.121H315.658z M315.658,323.764v-40.121h129.241v40.121H315.658z M444.899,268.644H315.658H188.469H59.229   v-40.122h151.105c10.012,11.897,24.999,19.477,41.73,19.477s31.718-7.579,41.729-19.477h151.105V268.644z M188.469,378.886H59.229   v-40.121h129.24V378.886z M188.469,393.886v40.122H59.229v-40.122H188.469z M188.469,323.764H59.229v-40.121h129.24V323.764z    M252.064,232.998c-21.801,0-39.537-17.736-39.537-39.538c0-21.8,17.736-39.536,39.537-39.536   c21.801,0,39.537,17.736,39.537,39.536C291.601,215.262,273.865,232.998,252.064,232.998z M252.064,138.925   c-16.73,0-31.718,7.579-41.73,19.476h-100.21l60.742-40.122h162.396l60.742,40.122h-100.21   C283.782,146.503,268.795,138.925,252.064,138.925z M87.415,173.401h113.952c-2.468,6.214-3.839,12.978-3.839,20.06   c0,7.083,1.372,13.847,3.839,20.061H59.229v-21.503L87.415,173.401z M59.229,489.128v-40.121h129.24v40.121H59.229z    M203.469,489.128V283.644h97.189v205.485H203.469z M315.658,489.128v-40.121h129.241v40.121H315.658z M444.899,213.522H302.762   c2.468-6.214,3.839-12.979,3.839-20.061c0-7.082-1.372-13.846-3.839-20.06h113.952l28.186,18.618V213.522z"/>
	<path style="fill:#0F2639;" d="M340.044,87.63l8.449-12.395L252.064,9.504L144.123,83.082v-49.84H81.102v92.798L8.403,175.596   l8.448,12.394L252.064,27.658L340.044,87.63z M96.102,48.243h33.021v45.064l-33.021,22.509V48.243z"/>
	
		<rect x="419.846" y="60.419" transform="matrix(0.5632 -0.8263 0.8263 0.5632 72.5752 413.4221)" style="fill:#0F2639;" width="15" height="155.285"/>
	<rect x="81.102" style="fill:#0F2639;" width="63.021" height="15"/>
</g>















</svg>
