<svg xmlns="http://www.w3.org/2000/svg" xmlns:xlink="http://www.w3.org/1999/xlink" preserveAspectRatio="xMidYMid" width="18" height="36" viewBox="0 0 18 36">
  <defs>
    <style>
      .cls-1 {
        fill: #fff;
        fill-rule: evenodd;
      }
    </style>
  </defs>
  <path d="M9.000,27.771 C4.049,27.771 0.000,23.606 0.000,18.514 L0.000,9.257 C0.000,4.166 4.049,0.000 9.000,0.000 C13.950,0.000 18.000,4.166 18.000,9.257 L18.000,18.514 C18.000,23.606 13.950,27.771 9.000,27.771 ZM16.000,9.257 C16.000,5.297 12.850,2.057 9.000,2.057 C5.151,2.057 2.001,5.297 2.001,9.257 L2.001,18.514 C2.001,22.474 5.151,25.714 9.000,25.714 C12.850,25.714 16.000,22.474 16.000,18.514 L16.000,9.257 ZM9.000,10.800 C8.450,10.800 8.000,10.337 8.000,9.772 L8.000,6.686 C8.000,6.120 8.450,5.658 9.000,5.658 C9.550,5.658 10.000,6.120 10.000,6.686 L10.000,9.772 C10.000,10.337 9.550,10.800 9.000,10.800 ZM5.799,31.680 C6.200,31.269 6.800,31.269 7.201,31.680 L9.000,33.531 L10.800,31.680 C11.200,31.269 11.800,31.269 12.200,31.680 C12.600,32.092 12.600,32.709 12.200,33.120 L9.700,35.691 C9.500,35.897 9.249,36.000 9.000,36.000 C8.750,36.000 8.500,35.897 8.300,35.691 L5.799,33.120 C5.400,32.709 5.400,32.092 5.799,31.680 Z" class="cls-1"/>
</svg>
