<svg xmlns="http://www.w3.org/2000/svg" xmlns:xlink="http://www.w3.org/1999/xlink" preserveAspectRatio="xMidYMid" width="32" height="21" viewBox="0 0 32 21">
  <defs>
    <style>
      .cls-1 {
        fill: #ed2c18;
        fill-rule: evenodd;
      }
    </style>
  </defs>
  <path d="M0.666,-0.001 C0.266,-0.001 -0.002,0.262 -0.002,0.656 L-0.002,20.343 C-0.002,20.737 0.266,21.000 0.666,21.000 L31.333,21.000 C31.732,21.000 31.999,20.737 31.999,20.343 L31.999,0.656 C31.999,0.262 31.732,-0.001 31.333,-0.001 L0.666,-0.001 ZM31.000,1.000 L31.000,20.000 L1.000,20.000 L1.000,1.000 L31.000,1.000 ZM15.999,10.500 C15.999,10.200 16.266,9.999 16.666,9.999 L23.333,9.999 C23.733,9.999 23.998,10.200 23.998,10.500 C23.998,10.800 23.733,11.000 23.333,11.000 L16.666,11.000 C16.266,11.000 15.999,10.800 15.999,10.500 ZM27.332,6.999 C27.733,6.999 27.999,7.200 27.999,7.500 C27.999,7.799 27.733,8.000 27.332,8.000 L16.666,8.000 C16.266,8.000 15.999,7.799 15.999,7.500 C15.999,7.200 16.266,6.999 16.666,6.999 L27.332,6.999 ZM27.010,13.500 C27.010,13.800 26.734,14.000 26.322,14.000 L16.687,14.000 C16.273,14.000 15.999,13.800 15.999,13.500 C15.999,13.200 16.273,13.000 16.687,13.000 L26.322,13.000 C26.734,13.000 27.010,13.200 27.010,13.500 ZM10.549,10.866 C11.255,10.266 11.705,9.333 11.705,8.333 C11.705,6.467 10.291,4.999 8.494,4.999 C6.695,4.999 5.283,6.467 5.283,8.333 C5.283,9.333 5.733,10.266 6.439,10.866 C5.028,11.666 3.999,13.200 3.999,15.000 L5.283,15.000 C5.283,13.133 6.695,11.666 8.494,11.666 C10.291,11.666 11.705,13.133 11.705,15.000 L12.989,15.000 C12.989,13.200 11.963,11.666 10.549,10.866 ZM6.567,8.333 C6.567,7.200 7.402,6.333 8.494,6.333 C9.585,6.333 10.421,7.200 10.421,8.333 C10.421,9.467 9.585,10.333 8.494,10.333 C7.402,10.333 6.567,9.467 6.567,8.333 Z" class="cls-1"/>
</svg>
