<svg xmlns="http://www.w3.org/2000/svg" xmlns:xlink="http://www.w3.org/1999/xlink" preserveAspectRatio="xMidYMid" width="32" height="21" viewBox="0 0 32 21">
  <defs>
    <style>
      .cls-1 {
        fill: #000;
        fill-rule: evenodd;
      }
    </style>
  </defs>
  <path d="M0.666,-0.001 C0.265,-0.001 -0.000,0.262 -0.000,0.655 L-0.000,20.343 C-0.000,20.737 0.265,21.000 0.666,21.000 L31.333,21.000 C31.733,21.000 31.999,20.737 31.999,20.343 L31.999,0.655 C31.999,0.262 31.733,-0.001 31.333,-0.001 L0.666,-0.001 ZM30.665,1.312 L30.665,19.687 L1.332,19.687 L1.332,1.312 L30.665,1.312 ZM15.999,10.500 C15.999,10.106 16.266,9.843 16.666,9.843 L23.333,9.843 C23.733,9.843 24.000,10.106 24.000,10.500 C24.000,10.893 23.733,11.156 23.333,11.156 L16.666,11.156 C16.266,11.156 15.999,10.893 15.999,10.500 ZM27.333,6.561 C27.733,6.561 28.000,6.824 28.000,7.218 C28.000,7.611 27.733,7.874 27.333,7.874 L16.666,7.874 C16.266,7.874 15.999,7.611 15.999,7.218 C15.999,6.824 16.266,6.561 16.666,6.561 L27.333,6.561 ZM26.666,13.781 C26.666,14.174 26.399,14.437 26.000,14.437 L16.666,14.437 C16.266,14.437 15.999,14.174 15.999,13.781 C15.999,13.387 16.266,13.124 16.666,13.124 L26.000,13.124 C26.399,13.124 26.666,13.387 26.666,13.781 ZM10.799,11.024 C11.532,10.434 12.000,9.515 12.000,8.531 C12.000,6.693 10.533,5.250 8.665,5.250 C6.799,5.250 5.332,6.693 5.332,8.531 C5.332,9.515 5.800,10.434 6.534,11.024 C5.066,11.812 3.999,13.322 3.999,15.093 L5.332,15.093 C5.332,13.256 6.799,11.812 8.665,11.812 C10.533,11.812 12.000,13.256 12.000,15.093 L13.333,15.093 C13.333,13.322 12.265,11.812 10.799,11.024 ZM6.666,8.531 C6.666,7.415 7.532,6.561 8.665,6.561 C9.799,6.561 10.666,7.415 10.666,8.531 C10.666,9.646 9.799,10.500 8.665,10.500 C7.532,10.500 6.666,9.646 6.666,8.531 Z" class="cls-1"/>
</svg>
