<svg xmlns="http://www.w3.org/2000/svg" xmlns:xlink="http://www.w3.org/1999/xlink" preserveAspectRatio="xMidYMid" width="16" height="18" viewBox="0 0 16 18">
  <defs>
    <style>
      .cls-1 {
        fill: #fff;
        fill-rule: evenodd;
      }
    </style>
  </defs>
  <path d="M12.630,11.367 C11.730,11.367 10.907,11.712 10.308,12.279 L6.589,9.913 C6.664,9.641 6.714,9.345 6.714,9.025 C6.714,8.803 6.689,8.606 6.639,8.383 L10.507,5.918 C11.081,6.386 11.830,6.657 12.630,6.657 C14.477,6.657 15.999,5.178 15.999,3.329 C15.999,1.479 14.502,-0.000 12.630,-0.000 C10.758,-0.000 9.259,1.479 9.259,3.329 C9.259,3.551 9.284,3.772 9.334,3.995 L5.490,6.485 C4.916,5.992 4.168,5.721 3.343,5.721 C1.496,5.696 -0.001,7.200 -0.001,9.025 C-0.001,10.849 1.496,12.353 3.368,12.353 C4.093,12.353 4.767,12.132 5.316,11.737 L9.309,14.277 C9.284,14.400 9.284,14.548 9.284,14.671 C9.284,16.496 10.783,18.000 12.655,18.000 C14.527,18.000 15.974,16.496 15.974,14.671 C15.974,12.846 14.477,11.367 12.630,11.367 Z" class="cls-1"/>
</svg>
